HIERARCHY
ROOT Hips
{
	OFFSET 0.000000 0.000000 0.000000
	CHANNELS 6 Xposition Yposition Zposition Xrotation Yrotation Zrotation
	JOINT LeftUpLeg_virtual
	{
		OFFSET 0.000000 0.000000 0.000000
		CHANNELS 3 Xrotation Yrotation Zrotation
		JOINT LeftUpLeg
		{
			OFFSET 10.205400 -3.823500 0.155100
			CHANNELS 3 Xrotation Yrotation Zrotation
			JOINT LeftLeg
			{
				OFFSET 0.708757 -12.982077 0.567790
				CHANNELS 3 Xrotation Yrotation Zrotation
				JOINT LeftFoot
				{
					OFFSET -0.708756 -10.717838 -2.184338
					CHANNELS 3 Xrotation Yrotation Zrotation
					JOINT LeftToeBase
					{
						OFFSET 0.108149 -7.191104 7.560241
						CHANNELS 3 Xrotation Yrotation Zrotation
						JOINT LeftToe_End
						{
							OFFSET 0.070230 0.081724 4.490308
							CHANNELS 3 Xrotation Yrotation Zrotation
							End Site
							{
								OFFSET 0 0 0
							}
						}
					}
				}
			}
		}
	}
	JOINT RightUpLeg_virtual
	{
		OFFSET 0.000000 0.000000 0.000000
		CHANNELS 3 Xrotation Yrotation Zrotation
		JOINT RightUpLeg
		{
			OFFSET -10.205400 -3.823500 0.005500
			CHANNELS 3 Xrotation Yrotation Zrotation
			JOINT RightLeg
			{
				OFFSET -0.708756 -12.982134 0.610632
				CHANNELS 3 Xrotation Yrotation Zrotation
				JOINT RightFoot
				{
					OFFSET 0.708754 -10.717769 -1.945823
					CHANNELS 3 Xrotation Yrotation Zrotation
					JOINT RightToeBase
					{
						OFFSET -0.108140 -7.191069 7.372968
						CHANNELS 3 Xrotation Yrotation Zrotation
						JOINT RightToe_End
						{
							OFFSET -0.070227 0.081735 4.479403
							CHANNELS 3 Xrotation Yrotation Zrotation
							End Site
							{
								OFFSET 0 0 0
							}
						}
					}
				}
			}
		}
	}
	JOINT Spine_virtual
	{
		OFFSET 0.000000 0.000000 0.000000
		CHANNELS 3 Xrotation Yrotation Zrotation
		JOINT Spine
		{
			OFFSET 0.000000 6.876099 0.125700
			CHANNELS 3 Xrotation Yrotation Zrotation
			JOINT Spine1
			{
				OFFSET 0.000000 5.730043 0.104720
				CHANNELS 3 Xrotation Yrotation Zrotation
				JOINT Spine1_split
				{
					OFFSET 0.000000 5.730043 0.104720
					CHANNELS 3 Xrotation Yrotation Zrotation
					JOINT Spine2
					{
						OFFSET 0.000000 5.730043 0.104720
						CHANNELS 3 Xrotation Yrotation Zrotation
						JOINT Neck_virtual
						{
							OFFSET 0.000000 0.000000 0.000000
							CHANNELS 3 Xrotation Yrotation Zrotation
							JOINT Neck
							{
								OFFSET 0.000000 10.314075 0.188496
								CHANNELS 3 Xrotation Yrotation Zrotation
								JOINT Head
								{
									OFFSET 0.000000 7.643700 -2.377400
									CHANNELS 3 Xrotation Yrotation Zrotation
									JOINT HeadTop_End
									{
										OFFSET 0.000000 43.788605 -13.619600
										CHANNELS 3 Xrotation Yrotation Zrotation
										End Site
										{
											OFFSET 0 0 0
										}
									}
								}
							}
						}
						JOINT LeftShoulder_virtual
						{
							OFFSET 0.000000 0.000000 0.000000
							CHANNELS 3 Xrotation Yrotation Zrotation
							JOINT LeftShoulder
							{
								OFFSET 2.196100 4.412489 0.087492
								CHANNELS 3 Xrotation Yrotation Zrotation
								JOINT LeftShoulder_split
								{
									OFFSET 2.196100 4.412489 0.087492
									CHANNELS 3 Xrotation Yrotation Zrotation
									JOINT LeftArm
									{
										OFFSET 8.771219 -2.981674 -0.026999
										CHANNELS 3 Xrotation Yrotation Zrotation
										JOINT LeftForeArm
										{
											OFFSET 8.512804 0.000000 -0.000000
											CHANNELS 3 Xrotation Yrotation Zrotation
											JOINT LeftHand
											{
												OFFSET 18.484802 0.000000 -0.000000
												CHANNELS 3 Xrotation Yrotation Zrotation
												End Site
												{
													OFFSET 0 0 0
												}
											}
										}
									}
								}
							}
						}
						JOINT RightShoulder_virtual
						{
							OFFSET 0.000000 0.000000 0.000000
							CHANNELS 3 Xrotation Yrotation Zrotation
							JOINT RightShoulder
							{
								OFFSET -2.196100 4.412496 0.070690
								CHANNELS 3 Xrotation Yrotation Zrotation
								JOINT RightShoulder_split
								{
									OFFSET -2.196100 4.412496 0.070690
									CHANNELS 3 Xrotation Yrotation Zrotation
									JOINT RightArm
									{
										OFFSET -8.771282 -2.981682 -0.094208
										CHANNELS 3 Xrotation Yrotation Zrotation
										JOINT RightForeArm
										{
											OFFSET -8.494598 0.000000 0.000000
											CHANNELS 3 Xrotation Yrotation Zrotation
											JOINT RightHand
											{
												OFFSET -18.483803 0.000000 0.000001
												CHANNELS 3 Xrotation Yrotation Zrotation
												End Site
												{
													OFFSET 0 0 0
												}
											}
										}
									}
								}
							}
						}
					}
				}
			}
		}
	}
}
MOTION
Frames: 8
Frame Time: 0.03333333
5.713136 24.706749 -2.066771 0.000000 0.000000 0.000000 48.917128 -82.008196 49.665888 -29.292561 -20.285855 41.007001 52.281871 -15.383089 8.696240 -25.443090 6.018507 -36.951040 -14.826177 0.000009 -0.000000 0.000000 0.000000 0.000000 48.917128 -82.008196 49.665888 -16.270656 13.893377 -45.844120 49.080633 12.014736 -8.687096 -38.907797 -7.809117 37.358830 -8.821226 0.000049 0.000000 0.000000 0.000000 0.000000 48.917128 -82.008196 49.665888 1.245058 4.607740 3.094774 1.621335 3.844466 0.818268 0.000000 0.000000 0.000000 0.000000 0.000000 0.000000 1.538155 3.914648 0.837147 -4.079163 9.240754 -1.109270 -3.116174 44.156811 -2.045571 0.000000 0.000000 0.000000 1.538155 3.914648 0.837147 0.787331 9.731754 -8.832545 0.000000 0.000000 0.000000 -10.163130 11.269061 -65.934446 179.999991 -63.581869 -179.999991 0.000000 0.000000 0.000000 1.538155 3.914648 0.837147 0.469785 13.491791 10.835795 0.000000 0.000000 0.000000 -9.891339 36.257212 44.312403 179.999896 78.869192 -179.999950 0.000000 0.000000 0.000000 
5.629353 24.660938 -2.081371 0.000000 0.000000 0.000000 34.122607 -81.447738 34.519021 -28.575131 -20.727310 41.087590 51.106487 -14.700329 8.720182 -26.482430 5.187280 -36.840647 -13.628745 0.000009 -0.000008 0.000000 0.000000 0.000000 34.122607 -81.447738 34.519021 -14.009134 12.748172 -46.144072 49.541862 12.817847 -8.607911 -38.090558 -8.025968 38.235553 -10.407767 0.000066 0.000011 0.000000 0.000000 0.000000 34.122607 -81.447738 34.519021 1.311004 4.219925 3.497561 1.674577 3.524483 1.048240 0.000000 0.000000 0.000000 0.000000 0.000000 0.000000 1.609789 3.584471 1.064619 -2.945497 8.978272 -1.211498 -3.441613 42.960411 -1.394687 0.000000 0.000000 0.000000 1.609789 3.584471 1.064619 0.654796 7.533273 -7.402807 0.000000 0.000000 0.000000 -5.403854 12.550899 -68.677757 179.999991 -61.750285 179.999991 0.000000 0.000000 0.000000 1.609789 3.584471 1.064619 0.654573 13.133321 8.324383 0.000000 0.000000 0.000000 -11.309124 35.091395 48.626859 179.999950 78.103684 -179.999991 0.000000 0.000000 0.000000 
5.012846 25.841942 -2.021410 0.000000 0.000000 0.000000 16.157414 -77.416069 16.457390 -32.762498 -19.172983 38.320025 45.348696 -14.099770 9.091549 -19.025285 -4.231776 -38.128261 -14.683623 0.000049 0.000010 0.000000 0.000000 0.000000 16.157414 -77.416069 16.457390 -9.339318 7.176575 -45.262595 46.276891 14.890004 -8.840684 -30.881283 -8.040862 38.743749 -17.631896 0.000099 0.000001 0.000000 0.000000 0.000000 16.157414 -77.416069 16.457390 0.978469 4.223471 3.927013 1.364927 3.425544 0.933034 0.000000 0.000000 0.000000 0.000000 0.000000 0.000000 1.299351 3.484998 0.928855 -2.094439 8.124941 -1.381037 -2.236921 38.340755 -0.194032 0.000000 0.000000 0.000000 1.299351 3.484998 0.928855 0.623449 7.184063 -6.717675 0.000000 0.000000 0.000000 -3.255311 6.222751 -65.186301 179.999991 -62.493635 179.999978 0.000000 0.000000 0.000000 1.299351 3.484998 0.928855 0.732054 11.989986 7.098541 0.000000 0.000000 0.000000 -9.801474 33.018938 50.192711 -179.999991 75.039955 179.999978 0.000000 0.000000 0.000000 
4.144682 27.618095 -2.043467 0.000000 0.000000 0.000000 8.638426 -71.068678 8.905404 -39.826307 -15.618763 33.280790 36.988124 -14.133873 10.049315 -4.430169 -18.548301 -37.041431 -19.819939 0.000034 0.000002 0.000000 0.000000 0.000000 8.638426 -71.068678 8.905404 -6.300002 1.921399 -43.426524 44.038946 17.117265 -7.678452 -17.427306 -6.629709 38.513101 -24.686348 0.000183 0.000035 0.000000 0.000000 0.000000 8.638426 -71.068678 8.905404 0.383094 4.583116 4.004879 0.852121 3.485857 0.754326 0.000000 0.000000 0.000000 0.000000 0.000000 0.000000 0.783427 3.538955 0.730217 -1.187059 7.052534 -1.747765 -0.532126 32.436828 0.464401 0.000000 0.000000 0.000000 0.783427 3.538955 0.730217 0.631629 7.428714 -6.398257 0.000000 0.000000 0.000000 -3.535912 -2.425785 -59.961500 179.999978 -64.101052 179.999964 0.000000 0.000000 0.000000 0.783427 3.538955 0.730217 0.774080 11.005997 6.249533 0.000000 0.000000 0.000000 -7.836083 30.143582 49.304626 179.999978 71.600176 179.999978 0.000000 0.000000 0.000000 
3.500058 29.770569 -2.082785 0.000000 0.000000 0.000000 5.209581 -64.077481 5.721234 -41.716903 -10.075118 28.093977 24.004589 -13.828906 8.744468 17.756798 -26.377963 -28.576405 -16.183356 0.225777 -3.861735 0.000000 0.000000 0.000000 5.209581 -64.077481 5.721234 -7.222899 0.098775 -40.153668 44.095151 18.399645 -5.341514 -0.277702 -1.294982 33.075768 -33.422568 -1.955409 7.102208 0.000000 0.000000 0.000000 5.209581 -64.077481 5.721234 -0.060397 4.610302 3.580667 0.447786 3.414555 0.672032 0.000000 0.000000 0.000000 0.000000 0.000000 0.000000 0.384778 3.459943 0.635139 -0.066088 6.023364 -2.092371 1.041129 26.981337 0.476842 0.000000 0.000000 0.000000 0.384778 3.459943 0.635139 0.699290 5.760005 -6.278171 0.000000 0.000000 0.000000 -4.279836 -7.456926 -56.699104 179.999978 -65.285578 180.000005 0.000000 0.000000 0.000000 0.384778 3.459943 0.635139 0.767356 10.535642 6.363133 0.000000 0.000000 0.000000 -5.778225 26.229111 45.684786 179.999937 68.887881 -179.999991 0.000000 0.000000 0.000000 
3.320015 32.312439 -2.111830 0.000000 0.000000 0.000000 3.696112 -58.190760 3.953414 -37.469117 -4.994526 26.358129 14.843024 -13.725576 5.478706 27.266597 -16.905312 -24.309355 -1.345701 0.019607 -1.163896 0.000000 0.000000 0.000000 3.696112 -58.190760 3.953414 -10.170142 0.123959 -34.191343 44.537020 18.005352 -4.045101 8.624013 0.200687 22.331795 -27.041791 -6.324231 12.453920 0.000000 0.000000 0.000000 3.696112 -58.190760 3.953414 -0.252501 4.047990 3.818099 0.247770 3.118936 0.650668 0.000000 0.000000 0.000000 0.000000 0.000000 0.000000 0.190740 3.164384 0.607545 0.410424 5.342837 -2.284647 1.788340 23.330990 0.742202 0.000000 0.000000 0.000000 0.190740 3.164384 0.607545 0.784880 4.211136 -6.789413 0.000000 0.000000 0.000000 -3.975728 -9.440265 -55.110850 180.000005 -65.749901 179.999991 0.000000 0.000000 0.000000 0.190740 3.164384 0.607545 0.701157 9.829441 7.579433 0.000000 0.000000 0.000000 -2.955951 23.088920 39.872349 179.999978 67.471757 -179.999991 0.000000 0.000000 0.000000 
3.340358 34.498146 -2.324583 0.000000 0.000000 0.000000 3.528527 -54.145857 3.722162 -34.650489 -1.908146 26.145199 19.624687 -13.062628 3.153961 16.969188 -4.436488 -27.074660 2.625892 0.000002 -0.000002 0.000000 0.000000 0.000000 3.528527 -54.145857 3.722162 -14.813833 3.164160 -30.404239 49.937610 13.056416 -4.528940 2.544840 -0.600029 18.756009 -1.913837 -0.234300 4.083070 0.000000 0.000000 0.000000 3.528527 -54.145857 3.722162 0.131731 3.230147 3.607396 0.547866 2.691306 0.398644 0.000000 0.000000 0.000000 0.000000 0.000000 0.000000 0.502950 2.736619 0.358697 -0.106718 5.130829 -2.416549 1.701858 21.957747 0.951250 0.000000 0.000000 0.000000 0.502950 2.736619 0.358697 0.836698 3.825863 -7.678174 0.000000 0.000000 0.000000 -4.731127 -9.787486 -54.636719 179.999978 -65.561811 179.999964 0.000000 0.000000 0.000000 0.502950 2.736619 0.358697 0.664584 9.188778 7.778941 0.000000 0.000000 0.000000 -1.851461 21.396995 36.493769 179.999950 68.113563 -179.999978 0.000000 0.000000 0.000000 
3.270627 35.762615 -2.672825 0.000000 0.000000 0.000000 3.618808 -50.360470 4.390750 -30.905868 0.811903 25.039781 23.164428 -12.940759 0.975153 11.519046 1.332800 -29.034342 0.437611 -0.000005 0.000007 0.000000 0.000000 0.000000 3.618808 -50.360470 4.390750 -20.839728 5.812476 -28.662469 51.931786 11.815106 -4.754280 -1.576863 -1.023100 19.942488 -0.701067 -0.000001 0.000015 0.000000 0.000000 0.000000 3.618808 -50.360470 4.390750 0.905907 2.184180 2.387488 1.199875 2.076371 0.071153 0.000000 0.000000 0.000000 0.000000 0.000000 0.000000 1.173705 2.121626 0.032940 -0.915223 5.075844 -2.395924 1.160364 21.641796 0.749547 0.000000 0.000000 0.000000 1.173705 2.121626 0.032940 0.852202 3.629343 -8.174290 0.000000 0.000000 0.000000 -7.663818 -9.938800 -55.360230 180.000005 -65.797856 -179.999991 0.000000 0.000000 0.000000 1.173705 2.121626 0.032940 0.667957 8.773994 6.786658 0.000000 0.000000 0.000000 -3.279954 19.838337 36.986892 179.999909 70.067769 -179.999937 0.000000 0.000000 0.000000 
